<?xml version="1.0" encoding="UTF-8" standalone="no"?>
<svg
   height="144"
   width="144"
   viewBox="0 0 144 144"
   version="1.1"
   id="svg6"
   sodipodi:docname="rust.svg"
   inkscape:version="1.2.1 (9c6d41e410, 2022-07-14)"
   xmlns:inkscape="http://www.inkscape.org/namespaces/inkscape"
   xmlns:sodipodi="http://sodipodi.sourceforge.net/DTD/sodipodi-0.dtd"
   xmlns="http://www.w3.org/2000/svg"
   xmlns:svg="http://www.w3.org/2000/svg">
  <defs
     id="defs10" />
  <sodipodi:namedview
     id="namedview8"
     pagecolor="#505050"
     bordercolor="#eeeeee"
     borderopacity="1"
     inkscape:showpageshadow="0"
     inkscape:pageopacity="0"
     inkscape:pagecheckerboard="0"
     inkscape:deskcolor="#505050"
     showgrid="false"
     inkscape:zoom="3.8541667"
     inkscape:cx="82.767568"
     inkscape:cy="49.037838"
     inkscape:window-width="1358"
     inkscape:window-height="691"
     inkscape:window-x="4"
     inkscape:window-y="348"
     inkscape:window-maximized="0"
     inkscape:current-layer="svg6" />
  <path
     d="m 71.828377,7.8392853 c -35.365163,0 -64.1485512,28.7969577 -64.1485512,64.1485507 0,35.351604 28.7969582,64.148564 64.1485512,64.148564 35.351603,0 64.148563,-28.79696 64.148563,-64.148564 0,-35.351593 -28.79696,-64.1485507 -64.148563,-64.1485507 z m -0.095,5.6996787 a 4.2069074,4.2204781 0 0 1 4.098342,4.220478 4.2204783,4.2204783 0 0 1 -8.440956,0 4.2204781,4.2204781 0 0 1 4.342614,-4.220478 z m 9.662316,6.948182 a 51.93495,51.93495 0 0 1 35.555157,25.32287 l -4.98044,11.236513 c -0.85494,1.940606 0.0272,4.220479 1.95419,5.089001 l 9.58089,4.247619 a 51.93495,51.93495 0 0 1 0.10856,9.010925 h -5.33327 c -0.52925,0 -0.74638,0.352837 -0.74638,0.868522 v 2.442721 c 0,5.753964 -3.2434,7.016036 -6.09324,7.328161 -2.71413,0.312126 -5.71325,-1.139936 -6.09323,-2.795558 -1.60133,-8.997353 -4.26118,-10.910818 -8.468104,-14.235631 5.224714,-3.311243 10.652984,-8.210255 10.652984,-14.751317 0,-7.070319 -4.84473,-11.521498 -8.142413,-13.706377 -4.641163,-3.0534 -9.770876,-3.66408 -11.155084,-3.66408 H 33.138399 A 51.93495,51.93495 0 0 1 62.193202,20.487146 l 6.500351,6.812477 c 1.465632,1.533486 3.894782,1.601339 5.428267,0.122135 z M 21.413337,51.726828 a 4.2204781,4.2204781 0 0 1 4.098342,4.220477 4.2204782,4.2204782 0 0 1 -8.440956,0 4.2204781,4.2204781 0 0 1 4.342614,-4.220477 z m 100.626523,0.189989 a 4.2204781,4.2204781 0 0 1 4.09834,4.220478 4.22048,4.22048 0 0 1 -8.44096,0 4.2204781,4.2204781 0 0 1 4.34262,-4.220478 z M 29.365749,52.59535 h 7.355303 V 85.762065 H 21.874744 A 51.93495,51.93495 0 0 1 20.191981,65.935317 l 9.092348,-4.044059 c 1.940606,-0.868522 2.8227,-3.134824 1.954176,-5.07543 z m 30.696854,0.352837 h 17.519734 c 0.909234,0 6.391786,1.044941 6.391786,5.156855 0,3.406238 -4.206908,4.627597 -7.667429,4.627597 H 60.049035 Z m 0,23.830094 h 13.421392 c 1.22136,0 6.554633,0.352839 8.250967,7.165314 0.529255,2.089883 1.709904,8.902359 2.510573,11.087237 0.80067,2.442721 4.04406,7.328168 7.50458,7.328168 h 21.903065 a 51.93495,51.93495 0 0 1 -4.80401,5.56397 l -8.915939,-1.91346 c -2.076315,-0.44784 -4.125486,0.88209 -4.573318,2.95841 l -2.117024,9.87944 A 51.93495,51.93495 0 0 1 49.938887,118.6438 l -2.117023,-9.87945 c -0.447834,-2.0763 -2.483433,-3.40623 -4.559745,-2.9584 l -8.725941,1.87275 a 51.93495,51.93495 0 0 1 -4.505462,-5.3197 h 42.435482 c 0.474973,0 0.800669,-0.0815 0.800669,-0.52926 V 86.820578 c 0,-0.434262 -0.325696,-0.529257 -0.800669,-0.529257 H 60.049035 Z M 40.480131,111.15279 a 4.2204781,4.2204781 0 0 1 4.098343,4.22047 4.2204782,4.2204782 0 0 1 -8.440956,0 4.2204781,4.2204781 0 0 1 4.342613,-4.22047 z m 62.492929,0.18999 a 4.2204781,4.2204781 0 0 1 4.09835,4.22047 4.2204815,4.2204815 0 0 1 -8.440962,0 4.2204781,4.2204781 0 0 1 4.342612,-4.22047 z"
     fill="#e43716"
     fill-rule="evenodd"
     id="path2"
     style="stroke-width:1.35707" />
  <path
     d="M 132.39428,71.987836 A 60.565896,60.565896 0 0 1 71.828377,132.55374 60.565896,60.565896 0 0 1 11.262481,71.987836 60.565896,60.565896 0 0 1 71.828377,11.42194 60.565896,60.565896 0 0 1 132.39428,71.987836 Z m -1.13994,-5.848958 9.44519,5.848958 -9.44519,5.848958 8.11526,7.586005 -10.39514,3.894781 6.48679,9.024495 -10.97867,1.791335 4.61403,10.12371 -11.11437,-0.39355 2.55127,10.8294 -10.8294,-2.55127 0.39355,11.11437 -10.123709,-4.61403 -1.791335,10.97867 -9.024495,-6.48679 -3.894781,10.39514 -7.586005,-8.11526 -5.848958,9.44519 -5.848958,-9.44519 -7.586005,8.11526 -3.894781,-10.39514 -9.024495,6.48679 -1.791329,-10.97867 -10.123719,4.61403 0.393549,-11.11437 -10.829394,2.55127 2.551287,-10.8294 -11.114379,0.39355 4.614028,-10.12371 L 8.1955111,98.342075 14.682289,89.31758 4.2871584,85.422799 12.402417,77.836794 2.9572328,71.987836 12.402417,66.138878 4.2871584,58.552873 14.682289,54.658092 8.1955111,45.633597 19.174181,43.842268 14.560153,33.718549 25.674532,34.112098 23.123245,23.282704 33.952639,25.833991 33.55909,14.719612 43.682809,19.33364 45.474138,8.3549706 l 9.024495,6.4867774 3.894781,-10.3951301 7.586005,8.1152581 5.848958,-9.4451837 5.848958,9.4451837 7.586005,-8.1152581 3.894781,10.3951301 9.024495,-6.4867774 1.791325,10.9786694 10.123719,-4.614028 -0.39355,11.114379 10.8294,-2.551287 -2.55127,10.829394 11.11437,-0.393549 -4.61403,10.123719 10.97867,1.791329 -6.48679,9.024495 10.39514,3.894781 z"
     fill="#e43716"
     fill-rule="evenodd"
     stroke="#e43716"
     stroke-linecap="round"
     stroke-linejoin="round"
     stroke-width="2.9121"
     id="path4" />
</svg>
